<?xml version="1.0" encoding="UTF-8" standalone="no"?>
<!DOCTYPE svg PUBLIC "-//W3C//DTD SVG 1.1//EN"
 "http://www.w3.org/Graphics/SVG/1.1/DTD/svg11.dtd">
<!-- Generated by graphviz version 2.43.0 (0)
 -->
<!-- Title: G Pages: 1 -->
<svg width="1085pt" height="314pt"
 viewBox="0.00 0.00 1085.00 314.00" xmlns="http://www.w3.org/2000/svg" xmlns:xlink="http://www.w3.org/1999/xlink">
<g id="graph0" class="graph" transform="scale(1 1) rotate(0) translate(4 310)">
<title>G</title>
<polygon fill="white" stroke="transparent" points="-4,4 -4,-310 1081,-310 1081,4 -4,4"/>
<!-- google_dataproc_cluster.tbd&#45;dataproc&#45;cluster -->
<g id="node1" class="node">
<title>google_dataproc_cluster.tbd&#45;dataproc&#45;cluster</title>
<polygon fill="none" stroke="black" points="1077,-171 766,-171 766,-135 1077,-135 1077,-171"/>
<text text-anchor="middle" x="921.5" y="-149.3" font-family="sans-serif" font-size="14.00">google_dataproc_cluster.tbd&#45;dataproc&#45;cluster</text>
</g>
<!-- google_project_iam_member.dataproc_bigquery_data_editor -->
<g id="node2" class="node">
<title>google_project_iam_member.dataproc_bigquery_data_editor</title>
<polygon fill="none" stroke="black" points="730,-306 320,-306 320,-270 730,-270 730,-306"/>
<text text-anchor="middle" x="525" y="-284.3" font-family="sans-serif" font-size="14.00">google_project_iam_member.dataproc_bigquery_data_editor</text>
</g>
<!-- google_dataproc_cluster.tbd&#45;dataproc&#45;cluster&#45;&gt;google_project_iam_member.dataproc_bigquery_data_editor -->
<g id="edge1" class="edge">
<title>google_dataproc_cluster.tbd&#45;dataproc&#45;cluster&#45;&gt;google_project_iam_member.dataproc_bigquery_data_editor</title>
<path fill="none" stroke="black" d="M895.8,-171.18C860.82,-195.92 793.98,-239.54 730,-261 723.01,-263.34 715.83,-265.48 708.52,-267.44"/>
<polygon fill="black" stroke="black" points="707.32,-264.14 698.49,-270 709.05,-270.92 707.32,-264.14"/>
</g>
<!-- google_project_iam_member.dataproc_bigquery_user -->
<g id="node3" class="node">
<title>google_project_iam_member.dataproc_bigquery_user</title>
<polygon fill="none" stroke="black" points="707.5,-252 342.5,-252 342.5,-216 707.5,-216 707.5,-252"/>
<text text-anchor="middle" x="525" y="-230.3" font-family="sans-serif" font-size="14.00">google_project_iam_member.dataproc_bigquery_user</text>
</g>
<!-- google_dataproc_cluster.tbd&#45;dataproc&#45;cluster&#45;&gt;google_project_iam_member.dataproc_bigquery_user -->
<g id="edge2" class="edge">
<title>google_dataproc_cluster.tbd&#45;dataproc&#45;cluster&#45;&gt;google_project_iam_member.dataproc_bigquery_user</title>
<path fill="none" stroke="black" d="M864.76,-171.1C827.06,-182.78 775.95,-197.5 730,-207 717.25,-209.64 703.99,-212.07 690.62,-214.31"/>
<polygon fill="black" stroke="black" points="689.7,-210.91 680.39,-215.98 690.83,-217.82 689.7,-210.91"/>
</g>
<!-- google_project_iam_member.dataproc_worker -->
<g id="node4" class="node">
<title>google_project_iam_member.dataproc_worker</title>
<polygon fill="none" stroke="black" points="683.5,-198 366.5,-198 366.5,-162 683.5,-162 683.5,-198"/>
<text text-anchor="middle" x="525" y="-176.3" font-family="sans-serif" font-size="14.00">google_project_iam_member.dataproc_worker</text>
</g>
<!-- google_dataproc_cluster.tbd&#45;dataproc&#45;cluster&#45;&gt;google_project_iam_member.dataproc_worker -->
<g id="edge3" class="edge">
<title>google_dataproc_cluster.tbd&#45;dataproc&#45;cluster&#45;&gt;google_project_iam_member.dataproc_worker</title>
<path fill="none" stroke="black" d="M766,-163.57C742.38,-165.19 717.89,-166.87 694,-168.5"/>
<polygon fill="black" stroke="black" points="693.53,-165.03 683.79,-169.2 694.01,-172.01 693.53,-165.03"/>
</g>
<!-- google_project_service.dataproc -->
<g id="node5" class="node">
<title>google_project_service.dataproc</title>
<polygon fill="none" stroke="black" points="638.5,-36 411.5,-36 411.5,0 638.5,0 638.5,-36"/>
<text text-anchor="middle" x="525" y="-14.3" font-family="sans-serif" font-size="14.00">google_project_service.dataproc</text>
</g>
<!-- google_dataproc_cluster.tbd&#45;dataproc&#45;cluster&#45;&gt;google_project_service.dataproc -->
<g id="edge4" class="edge">
<title>google_dataproc_cluster.tbd&#45;dataproc&#45;cluster&#45;&gt;google_project_service.dataproc</title>
<path fill="none" stroke="black" d="M895.8,-134.82C860.82,-110.08 793.98,-66.46 730,-45 704.28,-36.37 675.88,-30.49 648.64,-26.48"/>
<polygon fill="black" stroke="black" points="649.05,-23 638.66,-25.08 648.08,-29.93 649.05,-23"/>
</g>
<!-- google_storage_bucket_iam_member.staging_bucket_iam -->
<g id="node9" class="node">
<title>google_storage_bucket_iam_member.staging_bucket_iam</title>
<polygon fill="none" stroke="black" points="721,-144 329,-144 329,-108 721,-108 721,-144"/>
<text text-anchor="middle" x="525" y="-122.3" font-family="sans-serif" font-size="14.00">google_storage_bucket_iam_member.staging_bucket_iam</text>
</g>
<!-- google_dataproc_cluster.tbd&#45;dataproc&#45;cluster&#45;&gt;google_storage_bucket_iam_member.staging_bucket_iam -->
<g id="edge5" class="edge">
<title>google_dataproc_cluster.tbd&#45;dataproc&#45;cluster&#45;&gt;google_storage_bucket_iam_member.staging_bucket_iam</title>
<path fill="none" stroke="black" d="M766,-142.43C754.64,-141.65 743.08,-140.86 731.48,-140.06"/>
<polygon fill="black" stroke="black" points="731.5,-136.56 721.29,-139.37 731.03,-143.54 731.5,-136.56"/>
</g>
<!-- google_storage_bucket_iam_member.temp_bucket_iam -->
<g id="node10" class="node">
<title>google_storage_bucket_iam_member.temp_bucket_iam</title>
<polygon fill="none" stroke="black" points="713.5,-90 336.5,-90 336.5,-54 713.5,-54 713.5,-90"/>
<text text-anchor="middle" x="525" y="-68.3" font-family="sans-serif" font-size="14.00">google_storage_bucket_iam_member.temp_bucket_iam</text>
</g>
<!-- google_dataproc_cluster.tbd&#45;dataproc&#45;cluster&#45;&gt;google_storage_bucket_iam_member.temp_bucket_iam -->
<g id="edge6" class="edge">
<title>google_dataproc_cluster.tbd&#45;dataproc&#45;cluster&#45;&gt;google_storage_bucket_iam_member.temp_bucket_iam</title>
<path fill="none" stroke="black" d="M864.76,-134.9C827.06,-123.22 775.95,-108.5 730,-99 717.25,-96.36 703.99,-93.93 690.62,-91.69"/>
<polygon fill="black" stroke="black" points="690.83,-88.18 680.39,-90.02 689.7,-95.09 690.83,-88.18"/>
</g>
<!-- google_service_account.dataproc_sa -->
<g id="node6" class="node">
<title>google_service_account.dataproc_sa</title>
<polygon fill="none" stroke="black" points="269,-198 15,-198 15,-162 269,-162 269,-198"/>
<text text-anchor="middle" x="142" y="-176.3" font-family="sans-serif" font-size="14.00">google_service_account.dataproc_sa</text>
</g>
<!-- google_project_iam_member.dataproc_bigquery_data_editor&#45;&gt;google_service_account.dataproc_sa -->
<g id="edge7" class="edge">
<title>google_project_iam_member.dataproc_bigquery_data_editor&#45;&gt;google_service_account.dataproc_sa</title>
<path fill="none" stroke="black" d="M356.72,-270C344.2,-267.39 331.84,-264.41 320,-261 271.26,-246.96 218.83,-221.54 183.79,-202.91"/>
<polygon fill="black" stroke="black" points="185.3,-199.75 174.83,-198.09 181.98,-205.91 185.3,-199.75"/>
</g>
<!-- google_project_iam_member.dataproc_bigquery_user&#45;&gt;google_service_account.dataproc_sa -->
<g id="edge8" class="edge">
<title>google_project_iam_member.dataproc_bigquery_user&#45;&gt;google_service_account.dataproc_sa</title>
<path fill="none" stroke="black" d="M385.13,-216C363.33,-213.06 341.04,-210 320,-207 303.54,-204.65 286.22,-202.11 269.13,-199.55"/>
<polygon fill="black" stroke="black" points="269.52,-196.07 259.11,-198.05 268.48,-202.99 269.52,-196.07"/>
</g>
<!-- google_project_iam_member.dataproc_worker&#45;&gt;google_service_account.dataproc_sa -->
<g id="edge9" class="edge">
<title>google_project_iam_member.dataproc_worker&#45;&gt;google_service_account.dataproc_sa</title>
<path fill="none" stroke="black" d="M366.28,-180C337.47,-180 307.64,-180 279.51,-180"/>
<polygon fill="black" stroke="black" points="279.23,-176.5 269.23,-180 279.23,-183.5 279.23,-176.5"/>
</g>
<!-- google_storage_bucket.dataproc_staging -->
<g id="node7" class="node">
<title>google_storage_bucket.dataproc_staging</title>
<polygon fill="none" stroke="black" points="284,-144 0,-144 0,-108 284,-108 284,-144"/>
<text text-anchor="middle" x="142" y="-122.3" font-family="sans-serif" font-size="14.00">google_storage_bucket.dataproc_staging</text>
</g>
<!-- google_storage_bucket.dataproc_temp -->
<g id="node8" class="node">
<title>google_storage_bucket.dataproc_temp</title>
<polygon fill="none" stroke="black" points="276.5,-90 7.5,-90 7.5,-54 276.5,-54 276.5,-90"/>
<text text-anchor="middle" x="142" y="-68.3" font-family="sans-serif" font-size="14.00">google_storage_bucket.dataproc_temp</text>
</g>
<!-- google_storage_bucket_iam_member.staging_bucket_iam&#45;&gt;google_service_account.dataproc_sa -->
<g id="edge10" class="edge">
<title>google_storage_bucket_iam_member.staging_bucket_iam&#45;&gt;google_service_account.dataproc_sa</title>
<path fill="none" stroke="black" d="M385.13,-144C363.33,-146.94 341.04,-150 320,-153 303.54,-155.35 286.22,-157.89 269.13,-160.45"/>
<polygon fill="black" stroke="black" points="268.48,-157.01 259.11,-161.95 269.52,-163.93 268.48,-157.01"/>
</g>
<!-- google_storage_bucket_iam_member.staging_bucket_iam&#45;&gt;google_storage_bucket.dataproc_staging -->
<g id="edge11" class="edge">
<title>google_storage_bucket_iam_member.staging_bucket_iam&#45;&gt;google_storage_bucket.dataproc_staging</title>
<path fill="none" stroke="black" d="M328.76,-126C317.27,-126 305.81,-126 294.55,-126"/>
<polygon fill="black" stroke="black" points="294.25,-122.5 284.25,-126 294.25,-129.5 294.25,-122.5"/>
</g>
<!-- google_storage_bucket_iam_member.temp_bucket_iam&#45;&gt;google_service_account.dataproc_sa -->
<g id="edge12" class="edge">
<title>google_storage_bucket_iam_member.temp_bucket_iam&#45;&gt;google_service_account.dataproc_sa</title>
<path fill="none" stroke="black" d="M336.55,-90.03C330.84,-92.71 325.31,-95.69 320,-99 295.52,-114.25 308.03,-137.05 284,-153 281.69,-154.53 279.32,-155.98 276.9,-157.35"/>
<polygon fill="black" stroke="black" points="275.19,-154.29 267.89,-161.98 278.39,-160.52 275.19,-154.29"/>
</g>
<!-- google_storage_bucket_iam_member.temp_bucket_iam&#45;&gt;google_storage_bucket.dataproc_temp -->
<g id="edge13" class="edge">
<title>google_storage_bucket_iam_member.temp_bucket_iam&#45;&gt;google_storage_bucket.dataproc_temp</title>
<path fill="none" stroke="black" d="M336.29,-72C319.65,-72 302.97,-72 286.78,-72"/>
<polygon fill="black" stroke="black" points="286.77,-68.5 276.77,-72 286.77,-75.5 286.77,-68.5"/>
</g>
</g>
</svg>
